# xmcd
#
# Track frame offsets:
# 150
# 29981
# 49027
# 62613
# 82693
# 104968
# 126647
# 149443
# 170464
# 199911
# 228747
# 249100
# 270918
# 293735
# 317406
# 332512
#
# Disc length: 4723 seconds
#
# Revision: 1
# Processed by: cddbd v1.5.2PL0 Copyright (c) Steve Scherf et al.
# Submitted via: CedeCatalogueitor 2.6.0.6 http://personales.ya.com/cdcatalogueitor
#
DISCID=eb127110
DTITLE=LUIS EDUARDO AUTE - Humo Y Azar
DYEAR=2008
DGENRE=
TTITLE0=ME VA LA VIDA EN ELLO
TTITLE1=ESTA NOCHE
TTITLE2=PASABA POR AQUI
TTITLE3=IMAN DE MUJER
TTITLE4=IMAGINACION
TTITLE5=ALEVOSIA
TTITLE6=VOLVER A VERTE
TTITLE7=MOJANDOLO TODO
TTITLE8=TRIPTICO DE LUCES Y SOMBRAS
TTITLE9=DOS O TRES SEGUNDOS DE TERNURA
TTITLE10=HAFA CAFE
TTITLE11=SLOWLY
TTITLE12=EL RESTO ES HUMO
TTITLE13=AL DIA DE HOY
TTITLE14=CADA VEZ QUE ME AMAS
TTITLE15=SIN TU LATIDOUNA DE DOSANDALAS CUATRO Y DIEZDE ALGUNA MANERAAL ALBA
EXTD=
EXTT0=
EXTT1=
EXTT2=
EXTT3=
EXTT4=
EXTT5=
EXTT6=
EXTT7=
EXTT8=
EXTT9=
EXTT10=
EXTT11=
EXTT12=
EXTT13=
EXTT14=
EXTT15=
PLAYORDER=
